#N canvas 852 204 450 448 10;
#X obj 83 53 unpackOSC;
#X obj 83 23 udpreceive 9001;
#X obj 151 91 routeOSC /oscillator-on;
#X obj 151 131 routeOSC /oscillator-off;
#X obj 107 171 osc~;
#X msg 151 171 0;
#X msg 68 171 1;
#X obj 68 130 t b f;
#X obj 88 215 *~;
#X obj 78 264 dac~;
#X obj 355 24 loadbang;
#X msg 355 80 \; pd dsp 1;
#X obj 355 52 delay 1000;
#X connect 0 0 2 0;
#X connect 0 0 3 0;
#X connect 1 0 0 0;
#X connect 2 0 7 0;
#X connect 3 0 5 0;
#X connect 4 0 8 0;
#X connect 5 0 8 1;
#X connect 6 0 8 1;
#X connect 7 0 6 0;
#X connect 7 1 4 0;
#X connect 8 0 9 0;
#X connect 8 0 9 1;
#X connect 10 0 12 0;
#X connect 12 0 11 0;
